<svg xmlns="http://www.w3.org/2000/svg" xmlns:xlink="http://www.w3.org/1999/xlink" width="350" zoomAndPan="magnify" viewBox="0 0 263.04 143.04" height="180" preserveAspectRatio="xMidYMid meet" version="1.0"><defs><g/><clipPath id="5a48576940"><path d="M 0.398438 0 L 261.148438 0 L 261.148438 134.101562 L 0.398438 134.101562 Z M 0.398438 0 " clip-rule="nonzero"/></clipPath><clipPath id="ba7fde422d"><path d="M 224 41 L 240.71875 41 L 240.71875 66.175781 L 224 66.175781 Z M 224 41 " clip-rule="nonzero"/></clipPath><clipPath id="651aea1cf7"><path d="M 193 22 L 234 22 L 234 66.175781 L 193 66.175781 Z M 193 22 " clip-rule="nonzero"/></clipPath><clipPath id="a2a5a00923"><path d="M 33.226562 22.21875 L 77.210938 22.21875 L 77.210938 66.203125 L 33.226562 66.203125 Z M 33.226562 22.21875 " clip-rule="nonzero"/></clipPath><clipPath id="b38489e152"><rect x="0" width="241" y="0" height="121"/></clipPath></defs><g clip-path="url(#5a48576940)"><path fill="none" d="M 0.398438 0 L 261.148438 0 L 261.148438 134.101562 L 0.398438 134.101562 Z M 0.398438 0 " fill-opacity="0" fill-rule="nonzero"/><path fill="none" d="M 0.398438 0 L 261.148438 0 L 261.148438 134.101562 L 0.398438 134.101562 Z M 0.398438 0 " fill-opacity="0" fill-rule="nonzero"/></g><g transform="matrix(1, 0, 0, 1, 10, 5)"><g clip-path="url(#b38489e152)"><g fill="#ffffff" fill-opacity="1"><g transform="translate(0.417092, 64.265515)"><g><path d="M 4.609375 0 L 4.609375 -42.59375 L 16.109375 -42.59375 L 16.109375 -9.296875 L 32.515625 -9.296875 L 32.515625 0 Z M 4.609375 0 "/></g></g></g><g fill="#ffffff" fill-opacity="1"><g transform="translate(33.950346, 64.265515)"><g/></g></g><g fill="#ffffff" fill-opacity="1"><g transform="translate(48.255652, 64.265515)"><g/></g></g><g fill="#ffffff" fill-opacity="1"><g transform="translate(62.560959, 64.265515)"><g/></g></g><g fill="#ffffff" fill-opacity="1"><g transform="translate(76.876347, 64.265515)"><g><path d="M 23.578125 -33.765625 C 22.210938 -33.765625 20.992188 -33.476562 19.921875 -32.90625 C 18.859375 -32.332031 17.945312 -31.5 17.1875 -30.40625 C 16.425781 -29.320312 15.847656 -28 15.453125 -26.4375 C 15.054688 -24.875 14.859375 -23.101562 14.859375 -21.125 C 14.859375 -18.445312 15.195312 -16.191406 15.875 -14.359375 C 16.5625 -12.535156 17.597656 -11.15625 18.984375 -10.21875 C 20.367188 -9.289062 22.113281 -8.828125 24.21875 -8.828125 C 26.113281 -8.828125 27.941406 -9.085938 29.703125 -9.609375 C 31.460938 -10.140625 33.234375 -10.773438 35.015625 -11.515625 L 35.015625 -1.78125 C 33.140625 -0.945312 31.210938 -0.347656 29.234375 0.015625 C 27.265625 0.390625 25.171875 0.578125 22.953125 0.578125 C 18.335938 0.578125 14.554688 -0.335938 11.609375 -2.171875 C 8.671875 -4.003906 6.503906 -6.550781 5.109375 -9.8125 C 3.722656 -13.082031 3.03125 -16.875 3.03125 -21.1875 C 3.03125 -24.40625 3.476562 -27.351562 4.375 -30.03125 C 5.28125 -32.71875 6.609375 -35.046875 8.359375 -37.015625 C 10.109375 -38.984375 12.269531 -40.503906 14.84375 -41.578125 C 17.414062 -42.660156 20.363281 -43.203125 23.6875 -43.203125 C 25.75 -43.203125 27.921875 -42.960938 30.203125 -42.484375 C 32.484375 -42.015625 34.710938 -41.253906 36.890625 -40.203125 L 33.359375 -31.140625 C 31.804688 -31.878906 30.234375 -32.5 28.640625 -33 C 27.046875 -33.507812 25.359375 -33.765625 23.578125 -33.765625 Z M 23.578125 -33.765625 "/></g></g></g><g fill="#ffffff" fill-opacity="1"><g transform="translate(114.400508, 64.265515)"><g><path d="M 30.734375 0 L 28.640625 -7.984375 L 14.796875 -7.984375 L 12.640625 0 L 0 0 L 13.890625 -42.765625 L 29.25 -42.765625 L 43.328125 0 Z M 26.25 -17.421875 L 24.421875 -24.421875 C 24.222656 -25.171875 23.9375 -26.25 23.5625 -27.65625 C 23.195312 -29.070312 22.832031 -30.53125 22.46875 -32.03125 C 22.113281 -33.539062 21.84375 -34.78125 21.65625 -35.75 C 21.476562 -34.78125 21.226562 -33.582031 20.90625 -32.15625 C 20.582031 -30.726562 20.25 -29.3125 19.90625 -27.90625 C 19.570312 -26.507812 19.28125 -25.347656 19.03125 -24.421875 L 17.1875 -17.421875 Z M 26.25 -17.421875 "/></g></g></g><g fill="#ffffff" fill-opacity="1"><g transform="translate(156.527654, 64.265515)"><g><path d="M 4.609375 0 L 4.609375 -42.59375 L 16.109375 -42.59375 L 16.109375 -9.296875 L 32.515625 -9.296875 L 32.515625 0 Z M 4.609375 0 "/></g></g></g><g fill="#ffffff" fill-opacity="1"><g transform="translate(6.179557, 107.969196)"><g><path d="M 22.296875 -8.890625 C 22.296875 -7.296875 21.894531 -5.789062 21.09375 -4.375 C 20.300781 -2.957031 19.054688 -1.804688 17.359375 -0.921875 C 15.671875 -0.0351562 13.492188 0.40625 10.828125 0.40625 C 9.492188 0.40625 8.320312 0.34375 7.3125 0.21875 C 6.3125 0.101562 5.375 -0.0859375 4.5 -0.359375 C 3.632812 -0.640625 2.734375 -1 1.796875 -1.4375 L 1.796875 -8.484375 C 3.390625 -7.679688 4.992188 -7.070312 6.609375 -6.65625 C 8.222656 -6.238281 9.679688 -6.03125 10.984375 -6.03125 C 11.773438 -6.03125 12.421875 -6.125 12.921875 -6.3125 C 13.421875 -6.5 13.789062 -6.753906 14.03125 -7.078125 C 14.269531 -7.398438 14.390625 -7.773438 14.390625 -8.203125 C 14.390625 -8.710938 14.210938 -9.144531 13.859375 -9.5 C 13.503906 -9.851562 12.941406 -10.222656 12.171875 -10.609375 C 11.398438 -10.992188 10.378906 -11.472656 9.109375 -12.046875 C 8.023438 -12.554688 7.046875 -13.078125 6.171875 -13.609375 C 5.296875 -14.148438 4.546875 -14.757812 3.921875 -15.4375 C 3.304688 -16.125 2.832031 -16.925781 2.5 -17.84375 C 2.164062 -18.769531 2 -19.863281 2 -21.125 C 2 -23 2.460938 -24.570312 3.390625 -25.84375 C 4.316406 -27.125 5.609375 -28.082031 7.265625 -28.71875 C 8.929688 -29.363281 10.851562 -29.6875 13.03125 -29.6875 C 14.9375 -29.6875 16.65625 -29.472656 18.1875 -29.046875 C 19.71875 -28.617188 21.085938 -28.132812 22.296875 -27.59375 L 19.875 -21.484375 C 18.625 -22.054688 17.390625 -22.507812 16.171875 -22.84375 C 14.960938 -23.1875 13.835938 -23.359375 12.796875 -23.359375 C 12.109375 -23.359375 11.546875 -23.273438 11.109375 -23.109375 C 10.679688 -22.941406 10.363281 -22.71875 10.15625 -22.4375 C 9.945312 -22.15625 9.84375 -21.835938 9.84375 -21.484375 C 9.84375 -21.023438 10.019531 -20.613281 10.375 -20.25 C 10.726562 -19.894531 11.320312 -19.503906 12.15625 -19.078125 C 12.988281 -18.660156 14.128906 -18.117188 15.578125 -17.453125 C 17.003906 -16.816406 18.21875 -16.128906 19.21875 -15.390625 C 20.21875 -14.648438 20.976562 -13.757812 21.5 -12.71875 C 22.03125 -11.6875 22.296875 -10.410156 22.296875 -8.890625 Z M 22.296875 -8.890625 "/></g></g></g><g fill="#ffffff" fill-opacity="1"><g transform="translate(29.01863, 107.969196)"><g><path d="M 30.546875 -14.671875 C 30.546875 -12.421875 30.273438 -10.367188 29.734375 -8.515625 C 29.191406 -6.671875 28.347656 -5.078125 27.203125 -3.734375 C 26.054688 -2.398438 24.582031 -1.375 22.78125 -0.65625 C 20.976562 0.0507812 18.820312 0.40625 16.3125 0.40625 C 13.851562 0.40625 11.726562 0.0507812 9.9375 -0.65625 C 8.144531 -1.375 6.664062 -2.394531 5.5 -3.71875 C 4.34375 -5.050781 3.484375 -6.644531 2.921875 -8.5 C 2.359375 -10.363281 2.078125 -12.4375 2.078125 -14.71875 C 2.078125 -17.757812 2.582031 -20.40625 3.59375 -22.65625 C 4.601562 -24.90625 6.160156 -26.644531 8.265625 -27.875 C 10.378906 -29.113281 13.078125 -29.734375 16.359375 -29.734375 C 19.691406 -29.734375 22.398438 -29.109375 24.484375 -27.859375 C 26.578125 -26.617188 28.109375 -24.867188 29.078125 -22.609375 C 30.054688 -20.359375 30.546875 -17.710938 30.546875 -14.671875 Z M 10.40625 -14.671875 C 10.40625 -12.910156 10.601562 -11.394531 11 -10.125 C 11.40625 -8.863281 12.039062 -7.890625 12.90625 -7.203125 C 13.78125 -6.523438 14.914062 -6.1875 16.3125 -6.1875 C 17.769531 -6.1875 18.925781 -6.523438 19.78125 -7.203125 C 20.644531 -7.890625 21.265625 -8.863281 21.640625 -10.125 C 22.023438 -11.394531 22.21875 -12.910156 22.21875 -14.671875 C 22.21875 -17.316406 21.773438 -19.40625 20.890625 -20.9375 C 20.015625 -22.476562 18.503906 -23.25 16.359375 -23.25 C 14.929688 -23.25 13.78125 -22.898438 12.90625 -22.203125 C 12.03125 -21.503906 11.394531 -20.515625 11 -19.234375 C 10.601562 -17.953125 10.40625 -16.429688 10.40625 -14.671875 Z M 10.40625 -14.671875 "/></g></g></g><g fill="#ffffff" fill-opacity="1"><g transform="translate(60.864964, 107.969196)"><g><path d="M 3.15625 0 L 3.15625 -29.265625 L 11.078125 -29.265625 L 11.078125 -6.390625 L 22.34375 -6.390625 L 22.34375 0 Z M 3.15625 0 "/></g></g></g><g fill="#ffffff" fill-opacity="1"><g transform="translate(83.904198, 107.969196)"><g><path d="M 28.046875 -29.265625 L 28.046875 -11.65625 C 28.046875 -9.195312 27.578125 -7.0625 26.640625 -5.25 C 25.710938 -3.445312 24.3125 -2.050781 22.4375 -1.0625 C 20.570312 -0.0820312 18.234375 0.40625 15.421875 0.40625 C 11.390625 0.40625 8.3125 -0.628906 6.1875 -2.703125 C 4.0625 -4.773438 3 -7.695312 3 -11.46875 L 3 -29.265625 L 10.953125 -29.265625 L 10.953125 -12.09375 C 10.953125 -10.019531 11.335938 -8.515625 12.109375 -7.578125 C 12.878906 -6.648438 14.019531 -6.1875 15.53125 -6.1875 C 16.613281 -6.1875 17.492188 -6.390625 18.171875 -6.796875 C 18.859375 -7.203125 19.359375 -7.84375 19.671875 -8.71875 C 19.984375 -9.601562 20.140625 -10.738281 20.140625 -12.125 L 20.140625 -29.265625 Z M 28.046875 -29.265625 "/></g></g></g><g fill="#ffffff" fill-opacity="1"><g transform="translate(114.109209, 107.969196)"><g><path d="M 16.078125 0 L 8.171875 0 L 8.171875 -22.796875 L 1.015625 -22.796875 L 1.015625 -29.265625 L 23.203125 -29.265625 L 23.203125 -22.796875 L 16.078125 -22.796875 Z M 16.078125 0 "/></g></g></g><g fill="#ffffff" fill-opacity="1"><g transform="translate(137.508733, 107.969196)"><g><path d="M 3.15625 0 L 3.15625 -29.265625 L 11.109375 -29.265625 L 11.109375 0 Z M 3.15625 0 "/></g></g></g><g fill="#ffffff" fill-opacity="1"><g transform="translate(150.960247, 107.969196)"><g><path d="M 30.546875 -14.671875 C 30.546875 -12.421875 30.273438 -10.367188 29.734375 -8.515625 C 29.191406 -6.671875 28.347656 -5.078125 27.203125 -3.734375 C 26.054688 -2.398438 24.582031 -1.375 22.78125 -0.65625 C 20.976562 0.0507812 18.820312 0.40625 16.3125 0.40625 C 13.851562 0.40625 11.726562 0.0507812 9.9375 -0.65625 C 8.144531 -1.375 6.664062 -2.394531 5.5 -3.71875 C 4.34375 -5.050781 3.484375 -6.644531 2.921875 -8.5 C 2.359375 -10.363281 2.078125 -12.4375 2.078125 -14.71875 C 2.078125 -17.757812 2.582031 -20.40625 3.59375 -22.65625 C 4.601562 -24.90625 6.160156 -26.644531 8.265625 -27.875 C 10.378906 -29.113281 13.078125 -29.734375 16.359375 -29.734375 C 19.691406 -29.734375 22.398438 -29.109375 24.484375 -27.859375 C 26.578125 -26.617188 28.109375 -24.867188 29.078125 -22.609375 C 30.054688 -20.359375 30.546875 -17.710938 30.546875 -14.671875 Z M 10.40625 -14.671875 C 10.40625 -12.910156 10.601562 -11.394531 11 -10.125 C 11.40625 -8.863281 12.039062 -7.890625 12.90625 -7.203125 C 13.78125 -6.523438 14.914062 -6.1875 16.3125 -6.1875 C 17.769531 -6.1875 18.925781 -6.523438 19.78125 -7.203125 C 20.644531 -7.890625 21.265625 -8.863281 21.640625 -10.125 C 22.023438 -11.394531 22.21875 -12.910156 22.21875 -14.671875 C 22.21875 -17.316406 21.773438 -19.40625 20.890625 -20.9375 C 20.015625 -22.476562 18.503906 -23.25 16.359375 -23.25 C 14.929688 -23.25 13.78125 -22.898438 12.90625 -22.203125 C 12.03125 -21.503906 11.394531 -20.515625 11 -19.234375 C 10.601562 -17.953125 10.40625 -16.429688 10.40625 -14.671875 Z M 10.40625 -14.671875 "/></g></g></g><g fill="#ffffff" fill-opacity="1"><g transform="translate(182.80658, 107.969196)"><g><path d="M 31.03125 0 L 20.65625 0 L 9.96875 -20.625 L 9.796875 -20.625 C 9.859375 -19.988281 9.914062 -19.226562 9.96875 -18.34375 C 10.019531 -17.46875 10.066406 -16.570312 10.109375 -15.65625 C 10.148438 -14.75 10.171875 -13.925781 10.171875 -13.1875 L 10.171875 0 L 3.15625 0 L 3.15625 -29.265625 L 13.5 -29.265625 L 24.140625 -8.921875 L 24.265625 -8.921875 C 24.222656 -9.566406 24.179688 -10.3125 24.140625 -11.15625 C 24.097656 -12.007812 24.0625 -12.867188 24.03125 -13.734375 C 24 -14.597656 23.984375 -15.363281 23.984375 -16.03125 L 23.984375 -29.265625 L 31.03125 -29.265625 Z M 31.03125 0 "/></g></g></g><g fill="#ffffff" fill-opacity="1"><g transform="translate(216.17414, 107.969196)"><g><path d="M 22.296875 -8.890625 C 22.296875 -7.296875 21.894531 -5.789062 21.09375 -4.375 C 20.300781 -2.957031 19.054688 -1.804688 17.359375 -0.921875 C 15.671875 -0.0351562 13.492188 0.40625 10.828125 0.40625 C 9.492188 0.40625 8.320312 0.34375 7.3125 0.21875 C 6.3125 0.101562 5.375 -0.0859375 4.5 -0.359375 C 3.632812 -0.640625 2.734375 -1 1.796875 -1.4375 L 1.796875 -8.484375 C 3.390625 -7.679688 4.992188 -7.070312 6.609375 -6.65625 C 8.222656 -6.238281 9.679688 -6.03125 10.984375 -6.03125 C 11.773438 -6.03125 12.421875 -6.125 12.921875 -6.3125 C 13.421875 -6.5 13.789062 -6.753906 14.03125 -7.078125 C 14.269531 -7.398438 14.390625 -7.773438 14.390625 -8.203125 C 14.390625 -8.710938 14.210938 -9.144531 13.859375 -9.5 C 13.503906 -9.851562 12.941406 -10.222656 12.171875 -10.609375 C 11.398438 -10.992188 10.378906 -11.472656 9.109375 -12.046875 C 8.023438 -12.554688 7.046875 -13.078125 6.171875 -13.609375 C 5.296875 -14.148438 4.546875 -14.757812 3.921875 -15.4375 C 3.304688 -16.125 2.832031 -16.925781 2.5 -17.84375 C 2.164062 -18.769531 2 -19.863281 2 -21.125 C 2 -23 2.460938 -24.570312 3.390625 -25.84375 C 4.316406 -27.125 5.609375 -28.082031 7.265625 -28.71875 C 8.929688 -29.363281 10.851562 -29.6875 13.03125 -29.6875 C 14.9375 -29.6875 16.65625 -29.472656 18.1875 -29.046875 C 19.71875 -28.617188 21.085938 -28.132812 22.296875 -27.59375 L 19.875 -21.484375 C 18.625 -22.054688 17.390625 -22.507812 16.171875 -22.84375 C 14.960938 -23.1875 13.835938 -23.359375 12.796875 -23.359375 C 12.109375 -23.359375 11.546875 -23.273438 11.109375 -23.109375 C 10.679688 -22.941406 10.363281 -22.71875 10.15625 -22.4375 C 9.945312 -22.15625 9.84375 -21.835938 9.84375 -21.484375 C 9.84375 -21.023438 10.019531 -20.613281 10.375 -20.25 C 10.726562 -19.894531 11.320312 -19.503906 12.15625 -19.078125 C 12.988281 -18.660156 14.128906 -18.117188 15.578125 -17.453125 C 17.003906 -16.816406 18.21875 -16.128906 19.21875 -15.390625 C 20.21875 -14.648438 20.976562 -13.757812 21.5 -12.71875 C 22.03125 -11.6875 22.296875 -10.410156 22.296875 -8.890625 Z M 22.296875 -8.890625 "/></g></g></g><g clip-path="url(#ba7fde422d)"><path fill="#f68712" d="M 240 60.261719 L 229.339844 41.796875 L 224.636719 49.949219 L 232.9375 64.332031 C 233.6875 65.632812 235.058594 66.371094 236.46875 66.371094 C 237.160156 66.371094 237.859375 66.191406 238.5 65.820312 C 240.460938 64.691406 241.121094 62.210938 240 60.261719 Z M 240 60.261719 " fill-opacity="1" fill-rule="nonzero"/></g><g clip-path="url(#651aea1cf7)"><path fill="#f68712" d="M 232.519531 31.65625 L 228 39.488281 L 223.289062 47.640625 L 216.007812 60.25 C 213.824219 64.03125 209.753906 66.382812 205.394531 66.382812 C 200.964844 66.382812 196.992188 64.09375 194.773438 60.25 C 192.554688 56.421875 192.554688 51.828125 194.773438 47.988281 L 207.515625 25.9375 C 208.835938 23.644531 211.207031 22.277344 213.847656 22.277344 C 216.488281 22.277344 218.855469 23.644531 220.1875 25.9375 L 220.648438 26.734375 L 221.96875 29.015625 L 217.257812 37.167969 L 213.847656 31.265625 L 201.84375 52.058594 C 200.773438 53.910156 201.484375 55.550781 201.84375 56.171875 C 202.203125 56.789062 203.265625 58.230469 205.40625 58.230469 C 206.863281 58.230469 208.234375 57.441406 208.957031 56.171875 L 218.585938 39.488281 L 223.296875 31.335938 L 225.457031 27.585938 C 226.589844 25.636719 229.078125 24.964844 231.027344 26.097656 C 232.980469 27.214844 233.648438 29.707031 232.519531 31.65625 Z M 232.519531 31.65625 " fill-opacity="1" fill-rule="nonzero"/></g><path fill="#f68712" d="M 230.539062 21.976562 C 232.71875 26.886719 239.988281 23.875 238.070312 18.855469 C 235.878906 13.953125 228.609375 16.964844 230.539062 21.976562 Z M 230.539062 21.976562 " fill-opacity="1" fill-rule="nonzero"/><path fill="#f68712" d="M 55.144531 31.859375 C 52.238281 31.859375 49.882812 34.214844 49.882812 37.121094 C 49.882812 40.027344 52.238281 42.382812 55.144531 42.382812 C 58.050781 42.382812 60.40625 40.027344 60.40625 37.121094 C 60.40625 34.214844 58.050781 31.859375 55.144531 31.859375 " fill-opacity="1" fill-rule="nonzero"/><g clip-path="url(#a2a5a00923)"><path fill="#f68712" d="M 55.144531 57.554688 C 55.144531 57.554688 45.269531 44.117188 45.269531 38.664062 C 45.269531 33.207031 49.691406 28.785156 55.144531 28.785156 C 60.597656 28.785156 65.019531 33.207031 65.019531 38.664062 C 65.019531 44.117188 55.144531 57.554688 55.144531 57.554688 Z M 55.144531 22.21875 C 43.039062 22.21875 33.226562 32.03125 33.226562 44.136719 C 33.226562 56.238281 43.039062 66.050781 55.144531 66.050781 C 67.246094 66.050781 77.058594 56.238281 77.058594 44.136719 C 77.058594 32.03125 67.246094 22.21875 55.144531 22.21875 " fill-opacity="1" fill-rule="nonzero"/></g></g></g></svg>
